<svg aria-hidden="true" style="position: absolute; width: 0; height: 0; overflow: hidden;"  version="1.1" xmlns="http://www.w3.org/2000/svg" xmlns:xlink="http://www.w3.org/1999/xlink">
<defs>
<symbol id="icon-edit" class="day-preview-icon" viewBox="0 0 24 24" fill="none">
<path d="M18.9445 9.1875L14.9445 5.1875M18.9445 9.1875L13.946 14.1859C13.2873 14.8446 12.4878 15.3646 11.5699 15.5229C10.6431 15.6828 9.49294 15.736 8.94444 15.1875C8.39595 14.639 8.44915 13.4888 8.609 12.562C8.76731 11.6441 9.28735 10.8446 9.946 10.1859L14.9445 5.1875M18.9445 9.1875C18.9445 9.1875 21.9444 6.1875 19.9444 4.1875C17.9444 2.1875 14.9445 5.1875 14.9445 5.1875M20.5 12C20.5 18.5 18.5 20.5 12 20.5C5.5 20.5 3.5 18.5 3.5 12C3.5 5.5 5.5 3.5 12 3.5" stroke="#000000"  stroke-width="1.5" stroke-linecap="round" stroke-linejoin="round"/>
</symbol>

<symbol id="icon-delete" class="day-preview-icon" viewBox="0 0 24 24" fill="none" >
<path d="M4 7H20" stroke="#000000" stroke-width="2" stroke-linecap="round" stroke-linejoin="round"/>
<path d="M6 7V18C6 19.6569 7.34315 21 9 21H15C16.6569 21 18 19.6569 18 18V7" stroke="#000000" stroke-width="2" stroke-linecap="round" stroke-linejoin="round"/>
<path d="M9 5C9 3.89543 9.89543 3 11 3H13C14.1046 3 15 3.89543 15 5V7H9V5Z" stroke="#000000" stroke-width="2" stroke-linecap="round" stroke-linejoin="round"/>
</symbol>

<symbol id="icon-x" class="day-preview-icon" viewBox="0 0 24 24" fill="none">
<path d="M15.5303 9.53033C15.8232 9.23744 15.8232 8.76256 15.5303 8.46967C15.2374 8.17678 14.7625 8.17678 14.4696 8.46967L15.5303 9.53033ZM8.46961 14.4697C8.17672 14.7626 8.17672 15.2374 8.46961 15.5303C8.76251 15.8232 9.23738 15.8232 9.53027 15.5303L8.46961 14.4697ZM9.53039 8.46967C9.2375 8.17678 8.76263 8.17678 8.46973 8.46967C8.17684 8.76256 8.17684 9.23744 8.46973 9.53033L9.53039 8.46967ZM14.4697 15.5303C14.7626 15.8232 15.2375 15.8232 15.5304 15.5303C15.8233 15.2374 15.8233 14.7626 15.5304 14.4697L14.4697 15.5303ZM4 4V3.25C3.58579 3.25 3.25 3.58579 3.25 4H4ZM20 4H20.75C20.75 3.58579 20.4142 3.25 20 3.25V4ZM20 20V20.75C20.4142 20.75 20.75 20.4142 20.75 20H20ZM4 20H3.25C3.25 20.4142 3.58579 20.75 4 20.75V20ZM14.4696 8.46967L8.46961 14.4697L9.53027 15.5303L15.5303 9.53033L14.4696 8.46967ZM8.46973 9.53033L14.4697 15.5303L15.5304 14.4697L9.53039 8.46967L8.46973 9.53033ZM4 4.75H20V3.25H4V4.75ZM19.25 4V20H20.75V4H19.25ZM20 19.25H4V20.75H20V19.25ZM4.75 20V4H3.25V20H4.75Z" fill="red"/>
</symbol>

<symbol id="icon-ok" class="day-preview-icon" viewBox="0 0 24 24" fill="none">
<g id="ðŸ”-Product-Icons" stroke="none" stroke-width="1" fill="none" fill-rule="evenodd">
<g id="ic_fluent_checkbox_checked_24_regular" fill="green" fill-rule="nonzero">
<path d="M18.25,3 C19.7687831,3 21,4.23121694 21,5.75 L21,18.25 C21,19.7687831 19.7687831,21 18.25,21 L5.75,21 C4.23121694,21 3,19.7687831 3,18.25 L3,5.75 C3,4.23121694 4.23121694,3 5.75,3 L18.25,3 Z M18.25,4.5 L5.75,4.5 C5.05964406,4.5 4.5,5.05964406 4.5,5.75 L4.5,18.25 C4.5,18.9403559 5.05964406,19.5 5.75,19.5 L18.25,19.5 C18.9403559,19.5 19.5,18.9403559 19.5,18.25 L19.5,5.75 C19.5,5.05964406 18.9403559,4.5 18.25,4.5 Z M10,14.4393398 L16.4696699,7.96966991 C16.7625631,7.6767767 17.2374369,7.6767767 17.5303301,7.96966991 C17.7965966,8.23593648 17.8208027,8.65260016 17.6029482,8.94621165 L17.5303301,9.03033009 L10.5303301,16.0303301 C10.2640635,16.2965966 9.84739984,16.3208027 9.55378835,16.1029482 L9.46966991,16.0303301 L6.46966991,13.0303301 C6.1767767,12.7374369 6.1767767,12.2625631 6.46966991,11.9696699 C6.73593648,11.7034034 7.15260016,11.6791973 7.44621165,11.8970518 L7.53033009,11.9696699 L10,14.4393398 L16.4696699,7.96966991 L10,14.4393398 Z">
</path>
        </g>
    </g>
</symbol>


<symbol id="icon-add" class="nav-btn-icon" viewBox="0 0 24 24" fill="none">
<path d="M11 8C11 7.44772 11.4477 7 12 7C12.5523 7 13 7.44771 13 8V11H16C16.5523 11 17 11.4477 17 12C17 12.5523 16.5523 13 16 13H13V16C13 16.5523 12.5523 17 12 17C11.4477 17 11 16.5523 11 16V13H8C7.44772 13 7 12.5523 7 12C7 11.4477 7.44771 11 8 11H11V8Z" fill="#0F0F0F"/>
<path fill-rule="evenodd" clip-rule="evenodd" d="M23 4C23 2.34315 21.6569 1 20 1H4C2.34315 1 1 2.34315 1 4V20C1 21.6569 2.34315 23 4 23H20C21.6569 23 23 21.6569 23 20V4ZM21 4C21 3.44772 20.5523 3 20 3H4C3.44772 3 3 3.44772 3 4V20C3 20.5523 3.44772 21 4 21H20C20.5523 21 21 20.5523 21 20V4Z" fill="#0F0F0F"/>
</symbol>

<symbol id="icon-profile" class="nav-btn-icon" viewBox="0 0 24 24" fill="none">
<g id="é¡µé¢-1" stroke="none" stroke-width="1" fill="none" fill-rule="evenodd">
<g id="File" transform="translate(0.000000, -288.000000)">
<g id="profile_line" transform="translate(0.000000, 288.000000)">
<path d="M24,0 L24,24 L0,24 L0,0 L24,0 Z M12.5934901,23.257841 L12.5819402,23.2595131 L12.5108777,23.2950439 L12.4918791,23.2987469 L12.4918791,23.2987469 L12.4767152,23.2950439 L12.4056548,23.2595131 C12.3958229,23.2563662 12.3870493,23.2590235 12.3821421,23.2649074 L12.3780323,23.275831 L12.360941,23.7031097 L12.3658947,23.7234994 L12.3769048,23.7357139 L12.4804777,23.8096931 L12.4953491,23.8136134 L12.4953491,23.8136134 L12.5071152,23.8096931 L12.6106902,23.7357139 L12.6232938,23.7196733 L12.6232938,23.7196733 L12.6266527,23.7031097 L12.609561,23.275831 C12.6075724,23.2657013 12.6010112,23.2592993 12.5934901,23.257841 L12.5934901,23.257841 Z M12.8583906,23.1452862 L12.8445485,23.1473072 L12.6598443,23.2396597 L12.6498822,23.2499052 L12.6498822,23.2499052 L12.6471943,23.2611114 L12.6650943,23.6906389 L12.6699349,23.7034178 L12.6699349,23.7034178 L12.678386,23.7104931 L12.8793402,23.8032389 C12.8914285,23.8068999 12.9022333,23.8029875 12.9078286,23.7952264 L12.9118235,23.7811639 L12.8776777,23.1665331 C12.8752882,23.1545897 12.8674102,23.1470016 12.8583906,23.1452862 L12.8583906,23.1452862 Z M12.1430473,23.1473072 C12.1332178,23.1423925 12.1221763,23.1452606 12.1156365,23.1525954 L12.1099173,23.1665331 L12.0757714,23.7811639 C12.0751323,23.7926639 12.0828099,23.8018602 12.0926481,23.8045676 L12.108256,23.8032389 L12.3092106,23.7104931 L12.3186497,23.7024347 L12.3186497,23.7024347 L12.3225043,23.6906389 L12.340401,23.2611114 L12.337245,23.2485176 L12.337245,23.2485176 L12.3277531,23.2396597 L12.1430473,23.1473072 Z" id="MingCute" fill-rule="nonzero">
</path>
<path d="M20,3 C21.1046,3 22,3.89543 22,5 L22,19 C22,20.1046 21.1046,21 20,21 L4,21 C2.89543,21 2,20.1046 2,19 L2,5 C2,3.89543 2.89543,3 4,3 L20,3 Z M20,5 L4,5 L4,19 L20,19 L20,5 Z M17,15 C17.5523,15 18,15.4477 18,16 C18,16.51285 17.613973,16.9355092 17.1166239,16.9932725 L17,17 L7,17 C6.44772,17 6,16.5523 6,16 C6,15.48715 6.38604429,15.0644908 6.88337975,15.0067275 L7,15 L17,15 Z M10,7 C11.1046,7 12,7.89543 12,9 L12,11 C12,12.1046 11.1046,13 10,13 L8,13 C6.89543,13 6,12.1046 6,11 L6,9 C6,7.89543 6.89543,7 8,7 L10,7 Z M17,11 C17.5523,11 18,11.4477 18,12 C18,12.5523 17.5523,13 17,13 L14,13 C13.4477,13 13,12.5523 13,12 C13,11.4477 13.4477,11 14,11 L17,11 Z M10,9 L8,9 L8,11 L10,11 L10,9 Z M17,7 C17.5523,7 18,7.44772 18,8 C18,8.51283143 17.613973,8.93550653 17.1166239,8.9932722 L17,9 L14,9 C13.4477,9 13,8.55228 13,8 C13,7.48716857 13.386027,7.06449347 13.8833761,7.0067278 L14,7 L17,7 Z" id="å½¢çŠ¶" fill="#0F0F0F">
</path>
   </g>
 </g>
</g>
</symbol>

<symbol id="icon-send" class="form-btn-icon" viewBox="0 0 24 24" fill="none">
<path d="M9 22H15C20 22 22 20 22 15V9C22 4 20 2 15 2H9C4 2 2 4 2 9V15C2 20 4 22 9 22Z" stroke="#0F0F0F" stroke-width="1.5" stroke-linecap="round" stroke-linejoin="round"/>
<g>
<path d="M9 9.50977L12 6.50977L15 9.50977" stroke="#0F0F0F" stroke-width="1.5" stroke-linecap="round" stroke-linejoin="round"/>
<path d="M12 6.50977V14.5098" stroke="#0F0F0F" stroke-width="1.5" stroke-linecap="round" stroke-linejoin="round"/>
</g>
<path d="M6 16.5098C9.89 17.8098 14.11 17.8098 18 16.5098" stroke="#0F0F0F" stroke-width="1.5" stroke-linecap="round" stroke-linejoin="round"/>
</symbol>

<symbol id="icon-add-line" class="form-btn-icon" viewBox="0 0 24 24" fill="none">
<path d="M15 12L12 12M12 12L9 12M12 12L12 9M12 12L12 15" stroke="#0F0F0F" stroke-width="1.5" stroke-linecap="round"/>
<path d="M7 3.33782C8.47087 2.48697 10.1786 2 12 2C17.5228 2 22 6.47715 22 12C22 17.5228 17.5228 22 12 22C6.47715 22 2 17.5228 2 12C2 10.1786 2.48697 8.47087 3.33782 7" stroke="#0F0F0F" stroke-width="1.5" stroke-linecap="round"/>
</symbol>


<symbol id="icon-minus" class="form-btn-icon" viewBox="0 0 24 24" fill="none">
<path d="M22 12C22 17.5228 17.5228 22 12 22C6.47715 22 2 17.5228 2 12C2 6.47715 6.47715 2 12 2C17.5228 2 22 6.47715 22 12Z" fill="red"/>
<path d="M15.75 12C15.75 12.4142 15.4142 12.75 15 12.75H9C8.58579 12.75 8.25 12.4142 8.25 12C8.25 11.5858 8.58579 11.25 9 11.25H15C15.4142 11.25 15.75 11.5858 15.75 12Z" fill="white"/>
</symbol>


<symbol id="icon-next" class="pagination-btn-icon" viewBox="0 0 24 24" fill="none">
<path d="M9.71069 18.2929C10.1012 18.6834 10.7344 18.6834 11.1249 18.2929L16.0123 13.4006C16.7927 12.6195 16.7924 11.3537 16.0117 10.5729L11.1213 5.68254C10.7308 5.29202 10.0976 5.29202 9.70708 5.68254C9.31655 6.07307 9.31655 6.70623 9.70708 7.09676L13.8927 11.2824C14.2833 11.6729 14.2833 12.3061 13.8927 12.6966L9.71069 16.8787C9.32016 17.2692 9.32016 17.9023 9.71069 18.2929Z" fill="#0F0F0F"/>
</symbol>



<symbol id="icon-previous" class="pagination-btn-icon" viewBox="0 0 24 24" fill="none">
<path d="M14.2893 5.70708C13.8988 5.31655 13.2657 5.31655 12.8751 5.70708L7.98768 10.5993C7.20729 11.3805 7.2076 12.6463 7.98837 13.427L12.8787 18.3174C13.2693 18.7079 13.9024 18.7079 14.293 18.3174C14.6835 17.9269 14.6835 17.2937 14.293 16.9032L10.1073 12.7175C9.71678 12.327 9.71678 11.6939 10.1073 11.3033L14.2893 7.12129C14.6799 6.73077 14.6799 6.0976 14.2893 5.70708Z" fill="#0F0F0F"/>
</symbol>


<symbol id="icon-refresh" class="error-btn-icon" viewBox="0 0 24 24" fill="none">
<path d="M21 3V8M21 8H16M21 8L18 5.29168C16.4077 3.86656 14.3051 3 12 3C7.02944 3 3 7.02944 3 12C3 16.9706 7.02944 21 12 21C16.2832 21 19.8675 18.008 20.777 14" stroke="#000000" stroke-width="2" stroke-linecap="round" stroke-linejoin="round"/>
</symbol>

</defs>
</svg>
